<svg id="Layer_1" data-name="Layer 1" xmlns="http://www.w3.org/2000/svg" width="503.5" height="86.25" viewBox="0 0 503.5 86.25">
  <title>explore</title>
  <g>
    <path d="M5.17,2.84H58v6.5H12.3V40.21H57.17v6.5H12.3v33H58v6.5H5.17V2.84Z" transform="translate(-5.17 -1.46)"/>
    <path d="M105.55,48.59l-29,37.62h-9l33.62-42.75L69.42,2.84h9.13l27,35.38L132.67,2.84h9L110,43.34l33.5,42.87h-8.87Z" transform="translate(-5.17 -1.46)"/>
    <path d="M156.3,2.84h31.25c16,0,25.13,11.25,25.13,24.38s-9.25,24.38-25.12,24.38H163.42V86.21H156.3V2.84Zm30.5,6.5H163.42V45.09H186.8c11,0,18.38-7.37,18.38-17.87S197.8,9.34,186.8,9.34Z" transform="translate(-5.17 -1.46)"/>
    <path d="M227.67,2.84h7.13V79.71h40.38v6.5h-47.5V2.84Z" transform="translate(-5.17 -1.46)"/>
    <path d="M323.42,1.46c24.38,0,40.5,18.75,40.5,43.13s-16.12,43.12-40.5,43.12S282.92,69,282.92,44.59,298.92,1.46,323.42,1.46Zm0,6.5c-20.25,0-33,15.38-33,36.63,0,21,12.75,36.62,33,36.62,20,0,33-15.62,33-36.62C356.42,23.34,343.42,8,323.42,8Z" transform="translate(-5.17 -1.46)"/>
    <path d="M407,51.71H388.67v34.5h-7.12V2.84h31.13C427,2.84,438,12,438,27.21s-10.75,23.5-23.12,24l24.13,35h-8.62Zm5-42.38H388.67V45.21H412c11,0,18.5-7.5,18.5-18S423,9.34,412,9.34Z" transform="translate(-5.17 -1.46)"/>
    <path d="M455.8,2.84h52.88v6.5H462.92V40.21H507.8v6.5H462.92v33h45.75v6.5H455.8V2.84Z" transform="translate(-5.17 -1.46)"/>
  </g>
</svg>
