<?xml version="1.0" encoding="utf-8"?>
<!-- Generator: Adobe Illustrator 19.2.1, SVG Export Plug-In . SVG Version: 6.00 Build 0)  -->
<svg version="1.1" id="Layer_1" xmlns="http://www.w3.org/2000/svg" xmlns:xlink="http://www.w3.org/1999/xlink" x="0px" y="0px"
	 width="300px" height="60px" viewBox="0 0 300 60" style="enable-background:new 0 0 300 60;" xml:space="preserve">
<style type="text/css">
	.st0{fill:#EEC033;}
	.st1{fill:#3AACA9;}
</style>
<g>
	<path class="st0" d="M46.9,53.2V19.9L32.8,53.2h-4.4L15.5,19.9v33.4h-10V5.8H19l11.5,28.7L42.1,5.8H57v47.4H46.9z"/>
	<path class="st0" d="M119.4,53.2L105,34.2l-3.7,4.4v14.7h-10V5.8h10v21l16.9-21h12.5l-18.9,22.3l20.2,25.2H119.4z"/>
	<path class="st0" d="M186.2,53.2V5.8h10.2v47.4H186.2z"/>
	<path class="st0" d="M69,53.2V5.8h10.2v47.4H69z"/>
	<path class="st1" d="M199.7,48.2c0-3.1,2.6-5.8,5.8-5.8c3.1,0,5.8,2.6,5.8,5.8c0,3.1-2.6,5.8-5.8,5.8
		C202.3,53.9,199.7,51.3,199.7,48.2z"/>
	<path class="st0" d="M214.5,53.2V5.8h10.1v38.6h20.2v8.9H214.5z"/>
	<g>
		<g>
			<path class="st0" d="M157.8,5.6l-24.2,47.7l49.6,0L157.8,5.6z"/>
		</g>
	</g>
	<g>
		<g>
			<path class="st0" d="M270.6,5.6l-24.2,47.7l49.6,0L270.6,5.6z"/>
		</g>
	</g>
</g>
</svg>
