<svg id="Layer_1" data-name="Layer 1" xmlns="http://www.w3.org/2000/svg" viewBox="0 0 4130.26 675.85"><defs><style>.cls-1{fill:#24c2b8;}.cls-2{fill:#eec033;}</style></defs><title>logo-full</title><path class="cls-1" d="M635.31,713.85V249.15l-196.7,464.7H376.84L197.31,249.15v464.7h-140v-663h189l161.4,401.51L569.12,50.85H777.31v663h-142Z" transform="translate(-57.31 -49.52)"/><path class="cls-1" d="M1649.17,713.85L1447.52,448.12l-52.21,62.05V713.85h-140v-663h140V346.78L1631.24,50.85h174.35l-264,311.08,281.95,351.92H1649.17Z" transform="translate(-57.31 -49.52)"/><path class="cls-1" d="M2624.31,713.85v-663h142v663h-142Z" transform="translate(-57.31 -49.52)"/><path class="cls-1" d="M945.31,713.85v-663h142v663h-142Z" transform="translate(-57.31 -49.52)"/><path class="cls-2" d="M2813.53,644.67c0-43.84,36.86-80.7,80.7-80.7s80.7,36.86,80.7,80.7-36.86,80.7-80.7,80.7S2813.53,688.51,2813.53,644.67Z" transform="translate(-57.31 -49.52)"/><path class="cls-1" d="M3025.31,713.85v-663h141v539h282v124h-423Z" transform="translate(-57.31 -49.52)"/><path class="cls-1" d="M2194.88,49.52L1857,716.15,2550,716Z" transform="translate(-57.31 -49.52)"/><path class="cls-1" d="M3832.4,49.52L3494.5,716.15l693.06-.11Z" transform="translate(-57.31 -49.52)"/></svg>