<svg id="Layer_2" data-name="Layer 2" xmlns="http://www.w3.org/2000/svg" viewBox="0 0 4000 750"><title>logo-full</title><g id="TRIANGULAR_LOGO" data-name="TRIANGULAR LOGO"><path d="M578,710V245.39L384.62,710H322.85L140,245.39V710H0V47H192.34l161.4,401.51L515.14,47H720V710H578Z" style="fill:#24c2b8"/><path d="M836,710V47H958V710H836Z" style="fill:#24c2b8"/><path d="M1453.12,710L1251.34,444.32,1199,506.41V710H1059V47h140V343L1435.19,47h174.35l-264,311.08L1627.47,710H1453.12Z" style="fill:#24c2b8"/><path d="M2395,710V47h142V710H2395Z" style="fill:#24c2b8"/><path d="M2611.12,640.91c0-43.84,36.86-80.7,80.7-80.7s80.7,36.86,80.7,80.7-36.86,80.7-80.7,80.7S2611.12,684.75,2611.12,640.91Z" style="fill:#eec033"/><path d="M2844,710V47h141V586h282V710H2844Z" style="fill:#24c2b8"/><path d="M1994.32,45.76l-337.9,666.63,693.06-.11Z" style="fill:#24c2b8"/><path d="M3651.33,45.76l-337.9,666.63,693.06-.11Z" style="fill:#24c2b8"/></g></svg>