<svg id="Layer_1" data-name="Layer 1" xmlns="http://www.w3.org/2000/svg" width="422.3" height="84.6" viewBox="0 0 422.3 84.6">
  <title>prev</title>
  <g>
    <polygon points="42.3 84.6 0 42.3 42.3 0 47.01 4.71 9.41 42.3 47.01 79.89 42.3 84.6"/>
    <polygon points="78.58 84.6 36.29 42.3 78.58 0 83.29 4.71 45.7 42.3 83.29 79.89 78.58 84.6"/>
  </g>
  <g>
    <path d="M146.05,3.31H177.3c16,0,25.12,11.25,25.12,24.38s-9.25,24.38-25.12,24.38H153.18V86.69h-7.12V3.31Zm30.5,6.5H153.18V45.56h23.38c11,0,18.37-7.37,18.37-17.87S187.55,9.81,176.55,9.81Z" transform="translate(-8.5 -2.7)"/>
    <path d="M242.93,52.19H224.55v34.5h-7.12V3.31h31.13c14.38,0,25.38,9.13,25.38,24.38s-10.75,23.5-23.12,24l24.13,35H266.3Zm5-42.37H224.55V45.69h23.38c11,0,18.5-7.5,18.5-18S258.93,9.81,247.93,9.81Z" transform="translate(-8.5 -2.7)"/>
    <path d="M291.68,3.31h52.88v6.5H298.8V40.69h44.88v6.5H298.8v33h45.75v6.5H291.68V3.31Z" transform="translate(-8.5 -2.7)"/>
    <path d="M353.67,3.31h8.25l30.25,75.38L422.55,3.31h8.25L396.67,86.69H387.8Z" transform="translate(-8.5 -2.7)"/>
  </g>
</svg>
