<svg id="Layer_1" data-name="Layer 1" xmlns="http://www.w3.org/2000/svg" viewBox="0 0 96.29 149.31">
	<title>square-logo</title>
		<g id="FAVICON1">
			<g id="XD">
				<path d="M67.62,110.75H60.44V136h7.17c7.94,0,12.54-5.69,12.54-12.59C80.15,116.34,75.77,110.75,67.62,110.75Z" transform="translate(-0.02 0)" style="fill:#e6b115"/>
				<path d="M44.45,97.44v51.87H96.31V97.44H44.45Zm23.17,44.19H54V105.11H67.62c11.39,0,19.11,7.56,19.11,18.29S79,141.63,67.62,141.63Z" transform="translate(-0.02 0)" style="fill:#e6b115"/>
				<polygon id="X" points="4.12 104.51 0 108.63 15.77 124.4 0.6 139.57 4.71 143.69 19.89 128.52 35.06 143.69 39.17 139.57 24 124.4 39.77 108.63 35.66 104.51 19.89 120.28 4.12 104.51" style="fill:#2d529d;fill-rule:evenodd"/>
			</g>
			<g id="MIKAI.LA_LOGO" data-name="MIKAI.LA LOGO">
			<polygon id="M" points="69.71 0 48.11 53.74 26.51 0 0 0 0 88.74 18.79 88.74 18.79 26.57 43.98 88.74 52.24 88.74 77.38 26.57 77.38 88.74 96.3 88.74 96.3 0 69.71 0" style="fill:#3caba2;fill-rule:evenodd"/>
			</g>
		</g>
</svg>